<svg width="194" height="54" fill="none" xmlns="http://www.w3.org/2000/svg"><path d="M181.415 8.632c.275-1.244 1.189-2.154 2.312-2.836 1.156-.692 2.819-1.32 4.536-1.147.331.032.914.14 1.223.325a.23.23 0 01.066.043.347.347 0 01.11.108.225.225 0 01.044.12c.022.28-.562.476-.87.595-1.09.378-2.445.53-3.535.855-1.563.454-2.675 1.245-3.886 1.937zm12.497-1.234c-.132-1.71-1.178-2.814-2.467-3.507-1.31-.714-3.204-.974-5.186-.617-2.147.39-4.151 1.526-5.505 2.858-.187.195-.363.4-.54.606-.033.043-.066.076-.11.12-1.057 1.233-1.861 2.64-2.477 4.297a32.04 32.04 0 00-.826 2.522.31.31 0 00-.022.097 23.2 23.2 0 00-.694 3.215c-.033.184-.055.38-.088.574-.231 1.754-.286 3.908.066 5.543.11.52.22 1.18.683 1.353.242-.206.22-.51.286-.769 1.101-4.265 3.986-6.506 7.752-8.26 1.982-.93 4.129-1.601 5.968-2.684 1.806-1.06 3.391-2.49 3.16-5.348zm-19.655 24.454c.32-.292.771-.563 1.256-.617.583-.065 1.299.206 1.343.585.044.4-.495.693-.815.855-.418.216-.815.346-1.123.53-.661.412-1.068.964-1.387 1.624-.055.076-.165.206-.254.195a20.11 20.11 0 01-.066-.033c-.033-.032-.055-.108-.077-.227.088-1.158.397-2.252 1.123-2.912zm1.564-1.862l-.066.033.066-.033zm.099-.01c-.022 0-.044.01-.066.01.022 0 .033-.01.055-.01-.121.021-.242.021-.363.054-1.101.238-1.938.757-2.5 1.353-.572.595-1.101 1.44-1.189 2.565-.187 2.414 1.233 3.951 2.973 4.6 3.292 1.246 6.177-.93 6.529-3.604a4.236 4.236 0 00-.847-3.15 4.857 4.857 0 00-4.592-1.819zm-57.058-9.906c-.287.498-.342 1.213-.584 1.743.242-.53.308-1.245.584-1.743zm-2.181 11.496c.011.055.022.098.033.141a.329.329 0 01-.033-.14c0-.011 0 0 0 0zm47.127-3.474c.011.032.033.065.044.097-.011-.032-.033-.065-.044-.097zm5.979-2.252c-1.916-2.858-7.278-2.641-11.507-3.453-1.266-.238-3.061-.628-2.973-1.981.033-.509.397-.888.848-1.18.276-.184.584-.325.881-.465 1.068-.498 2.555-.953 3.788-.444.87.357 1.486.952 2.466 1.299.936.335 2.114.195 3.061-.054.562-.152 1.09-.336 1.597-.563.903-.4 2.103-.964 2.246-2.035.121-.899-1.068-1.7-1.596-2.068-1.476-1.018-3.282-1.678-5.561-1.775-1.134-.043-2.367.205-3.314.379-2.742.53-5.274 1.396-7.411 2.598-.935.53-2.026 1.223-2.807 2.121-.694.79-1.509 2.111-1.189 3.573.011.065.044.13.066.195V22c.088.303.231.574.418.801.011.011.022.033.033.044.496.628 1.255 1.06 2.048 1.374 1.2.477 2.698.769 4.063 1.029 1.024.195 2.191.346 3.336.541.033 0 .066.01.099.022.122.021.232.043.353.054h.022c.033 0 .066.01.099.01.022 0 .044.011.066.011.187.033.374.065.551.109.011 0 .011 0 .022.01.308.066.605.12.891.195.022 0 .044.011.067.011 1.035.26 1.959.606 2.631 1.094.716.52 1.101 1.46.683 2.479-.287.692-.771 1.288-1.388 1.796-.022.022-.044.033-.055.055-.011.01-.022.01-.022.021l-.264.195a2.44 2.44 0 00-.176.13c-.892.606-1.96 1.072-3.05 1.461-1.531.542-4.449 1.3-6.188.498-.408-.195-.694-.433-.815-.8a1.47 1.47 0 01.286-1.419c.353-.39 1.046-.53 1.718-.703.639-.163 1.31-.444 1.255-1.148-.044-.541-.616-.736-1.035-.888a5.365 5.365 0 00-2.433-.324c-.099 0-.187 0-.253.021a6.018 6.018 0 00-1.652.466c-1.167.52-2.423 1.364-2.973 2.273-.562.942-.176 2.09.275 2.945.925 1.732 2.489 2.9 4.559 3.485 3.149.888 6.959.108 9.436-.682 2.588-.823 5.142-2.11 6.904-3.864.848-.834 1.696-1.862 2.158-3.161.473-1.32.562-3.075-.264-4.298z" fill="#B53343"/><path d="M135.058 17.606c1.288.087 2.885.13 4.063.477.044.01.099.032.154.043a2.9 2.9 0 01.463.184c.055.022.11.043.154.076.209.119.396.26.539.422.727.823-.286 1.721-.902 2.306-1.454 1.364-3.326 2.587-5.187 3.453.243-2.317.485-4.633.716-6.96zm-18.355 14.105l-.033-.14v-.011c.011.054.022.108.033.151zm-.044-.422zm29.872-10.554c-.011.021-.022.032-.044.054.011-.022.033-.033.044-.054zm.375-.563c0 .01-.011.01-.011.022.011-.011.011-.022.011-.022zm-7.873 7.199c2.687-1.96 5.583-3.865 7.476-6.517.331-.466.628-.963.837-1.516.077-.194.143-.4.199-.606.022-.076.044-.151.066-.238.187-1.017-.122-1.905-.749-2.566-1.101-1.147-2.973-1.764-4.944-2.154-2.984-.584-6.574-.768-9.965-.476a21.03 21.03 0 01-1.652.087h-.033c-.088 0-.165 0-.253.01h-.033c-.495.011-.991.022-1.475.044-4.647.205-8.93.66-12.971 1.353-1.035.173-2.323.325-3.094.736-.43.227-.793.769-1.035 1.212-.044.098-.088.184-.132.271-.011.022-.022.054-.033.076a.942.942 0 00-.055.162 1.784 1.784 0 00-.089.325 2.343 2.343 0 00-.011.996c0 .021 0 .032.011.054l.034.13a.604.604 0 00.044.13c.033.086.066.162.11.238.396.768 1.255 1.31 2.323 1.44-.11.357-.143.79-.253 1.147-.232.13-.496.26-.76.4 0 0-.011 0-.011.011-.077.044-.143.076-.22.12-.727.39-1.432.866-1.597 1.634-.198.877.364 1.786.749 2.208.066.076.242.195.407.325 0 0 .011 0 .011.011.121.12.254.216.386.314l.011.01c.055.055.088.098.088.142.044.183-.11.584-.154.887a172.18 172.18 0 00-.661 4.687c-.11.899-.33 1.797-.099 2.512.341.996 1.134 1.688 2.059 2.36.925.67 1.883 1.234 2.995 1.504.859.206 1.629-.14 2.345-.411a21.885 21.885 0 001.465-.617 58.608 58.608 0 005.527-2.804c.771-.444 2.114-1.017 2.191-1.948.033-.433-.242-.855-.44-1.061-.286-.303-.87-.693-1.343-.79-.639-.141-1.63.01-2.412.086-1.508.163-2.885.357-4.217.682-.705.173-1.387.53-2.026.444-.396-.054-.826-.476-.903-.736-.099-.346-.022-.801 0-1.18.066-1.299.198-2.208.374-3.388 1.916-.336 3.931-.812 5.781-1.267 1.266-.314 3.634-.833 2.687-2.511-.969-1.71-4.746-1.31-7.278-1.386.187-.628.352-1.266.55-1.862-.286.498-.341 1.213-.583 1.743.242-.53.308-1.245.583-1.743 0-.01.011-.01.011-.021a1428.72 1428.72 0 009.69-1.743c-.11 5.282.011 11.02.561 15.988.088.845.243 1.548.375 2.414.11.704.198 1.927.748 2.068.386.087.815-.195 1.09-.379.342-.227.661-.454.881-.682 1.498-1.57 1.134-5.055 1.531-7.642.528.292.936.747 1.409 1.125 1.476 1.159 2.973 2.23 4.504 3.335 1.453 1.06 2.852 2.349 4.437 3.366.496.314 1.134.888 1.751.888.616 0 1.145-.455 1.277-1.029.319-1.31-.506-2.63-1.123-3.388-2.07-2.587-5.197-4.46-6.97-7.014zm-94.33-7.048a.474.474 0 01.066-.075c.32 1.32.683 2.738.97 3.994-1.168.173-2.401.293-3.535.498.704-1.472 1.607-3.01 2.5-4.416zm8.28 13.575a289.366 289.366 0 00-2.036-11.8c-.474-2.5-1.003-5.228-1.63-7.577-.606-2.305-1.828-4.579-3.843-5.52-.21-.098-.462-.206-.716-.239-1.883-.26-1.816 2.133-1.563 3.66-2.246 3.886-4.206 8.226-6.122 12.686-.914 2.122-1.828 4.352-2.654 6.723-.374 1.093-.826 2.36-1.035 3.626-.21 1.288-.264 3.388.881 3.572.54.087 1.057-.281 1.376-.563 1.035-.93 1.465-2.49 1.971-3.778a65.157 65.157 0 012.346-5.282c2.059-.455 4.68-.52 7.036-.585.737 2.544.737 5.932 2.433 7.47.374.335 1.024.66 1.597.974.451.249 1.354.78 1.904.476.419-.238.43-1.017.342-1.83a48.216 48.216 0 00-.287-2.013zM31.027 19.782c.044-.043.088-.076.122-.13.044-.054.099-.097.143-.162-.1.14-.232.249-.342.379.022-.033.055-.055.078-.087zm3.953 3.67c1.784-1.505 2.918-3.648 3.16-6.311.265-2.934-1.123-5.099-2.62-6.788-1.487-1.656-3.403-3.052-5.373-4.221-2.015-1.18-4.24-2.187-6.662-3.01-3.48-1.18-7.686-2.305-12.508-2.1-1.509.065-3.028.173-4.383.53-1.607.434-3.259.79-4.591 1.538-.397.227-.97.574-1.002 1.007-.044.562.374.876.715 1.136.022.022.045.033.067.044.726.54 1.75 1.082 2.906 1.125.639.022 1.289-.054 1.784-.27.628-.271.97-.888 1.53-1.148.53-.249 1.278-.303 2.082-.27.87.032 1.816.162 2.61.238 4.073.422 7.454 1.44 10.504 2.803a25.127 25.127 0 014.217 2.393c.033.032.077.054.11.075.43.314.848.628 1.233.975l.022.021c.187.163.375.336.55.498a12.207 12.207 0 011.432 1.592c.606.8 1.277 1.85 1.377 2.955.055.66 0 1.245-.155 1.775-.099.303-.23.585-.352.855 0 0 0 .011-.011.011-.749 1.332-2.17 2.187-3.7 2.696-2.477.833-5.615.909-8.94.736a106.306 106.306 0 00-.661-7.08c-.21-1.656-.474-3.431-.903-4.925-.011-.043-.022-.098-.044-.14l-.066-.196c-.132-.422-.341-.844-.705-.833-.451.01-.749.714-.936 1.06-1.596 3.075-1.993 7.34-2.092 11.746-1.145.01-2.246.216-2.565 1.06-.452 1.213.903 2.306 1.684 2.772.165.097.463.195.672.303.044.021.088.043.121.065.066.043.121.086.143.14.055.12.022.488.033.77.1 2.987.364 5.715.683 8.432.121.985.176 2.035.44 2.89.177.574.55 1.17 1.19 1.245 1.09.12 1.992-1.299 2.411-1.894.606-.856 1.002-1.765 1.068-2.977.066-1.31-.121-2.587-.121-3.865 0-1.288-.1-2.565-.1-3.897 6.684.357 12.322-.65 15.746-3.561z" fill="#B53343"/><path d="M31.148 19.652a1.295 1.295 0 01-.12.13c-.023.033-.056.054-.078.087.11-.12.242-.238.342-.38-.045.066-.1.11-.144.163zm29.522-2.749c1.585.043 3.236.162 4.404.617.33.13.737.314.99.595.012.011.023.022.023.033.099.119.165.26.209.4a.92.92 0 01.022.303c-.066.596-.771 1.234-1.19 1.624-1.409 1.342-3.435 2.533-5.13 3.388.143-2.284.517-4.6.671-6.96zm36.258-3.194c.143-.281.275-.66.22-1.028-.242-1.71-3.336-1.115-4.69-.714-2.654.8-4.592 2.305-7.972 2.305-2.39 0-4.195-.433-5.902-.974a48.167 48.167 0 01-3.755-1.353c-.286-.12-.583-.26-.88-.357-.012 0-.023-.011-.034-.011-.055-.022-.11-.033-.165-.054l-.132-.033a1.77 1.77 0 00-1.068.098c-.815.335-1.376 1.028-1.42 2.089v-.011s-.1.368-.078.574c-.154-.163-.594-.314-.902-.433-3.667-1.43-9.536-1.667-14.249-1.061-1.563.206-4.15.574-4.844 1.537-.507.704-.265 2.317.407 2.63.716.325 1.828-.021 2.786.152-.21 5.445.01 11.247.495 16.346.077.812.276 1.656.408 2.446.143.823.066 1.787.682 2.209.463.108.86-.163 1.157-.358a5.03 5.03 0 00.847-.714c1.575-1.591 1.135-5.012 1.564-7.642 1.894 1.57 3.854 2.976 5.913 4.481 1.442 1.072 2.874 2.328 4.437 3.367.474.314 1.156.887 1.75.887.97 0 1.388-.92 1.311-1.862-.099-1.223-.782-2.132-1.464-2.922-2.06-2.36-4.944-4.233-6.662-6.636 2.566-1.819 5.274-3.745 7.223-6.257.75-.963 1.509-2.1 1.377-3.626 1.321.736 2.929 1.19 4.657 1.537-.638 4.167-1.607 8.811-1.684 13.628-.022 1.7.044 3.291.594 4.547.463 1.05 1.399 2.187 2.907 2.187 1.046 0 1.883-.628 2.004-1.472.055-.412 0-.856.033-1.267.341-4.438.87-8.747 1.597-12.774.275-1.504.627-2.955.814-4.46 4.196-.086 8.094-1.114 10.725-2.89.76-.552 1.597-1.277 1.993-2.11z" fill="#B53343"/><path d="M107.872 13.688c-.33-.217-1.376-.639-1.816-.325-.154.108-.342.346-.441.498-1.09 1.894-.616 5.163-.815 7.935-.198 2.89-.726 5.315-1.596 7.263-1.993-2.078-4.074-4.157-5.968-6.376-.793-.93-1.332-1.83-1.971-2.944-.033-.054-.055-.098-.088-.152-.264-.476-.617-1.05-1.068-1.169-.463-.13-.947.065-1.376.206-.397.13-.804.249-1.09.411-.386.217-.672.596-.97.942-.297.346-.638.736-.814 1.093-.287.617-.43 1.364-.661 2.068-1.134 3.442-2.444 6.657-2.94 10.738-.198 1.69-.187 3.627.496 4.753.462.747 1.618 1.407 2.873 1.245 1.85-.25 1.817-2.48 2.126-4.136.65-3.507 1.288-6.462 2.41-9.44 1.565 2.469 3.238 4.753 4.879 7.026.781 1.094 1.541 2.317 2.433 3.508.441.584.892 1.093 1.465 1.537.539.411 1.365.855 2.312.736 1.002-.13 1.674-1.45 2.037-2.392 1.134-2.967 1.574-6.3 2.059-9.765.319-2.273.495-4.665.495-7.317.022-2.468-.484-4.99-1.971-5.943z" fill="#B53343"/><path d="M27.086 48.804v1.602h2.907v1.158h-2.907v2.317h-1.267v-6.235h4.603v1.158h-3.336zm7.168 0v1.43h3.028v1.157h-3.028v1.343h3.402v1.158h-4.668v-6.235h4.668v1.158h-3.402v-.01zm12.112 1.938c0 1.797-1.454 3.15-3.402 3.15H40.53v-6.235h2.434c1.948-.011 3.402 1.32 3.402 3.085zm-1.288 0c0-1.072-.947-1.938-2.114-1.938h-1.168v3.93h1.168c1.167-.011 2.114-.888 2.114-1.992zm5.339-1.938v1.43h3.028v1.157h-3.028v1.343h3.403v1.158h-4.67v-6.235h4.669v1.158h-3.403v-.01zM59.27 51.9h-1.31v1.981h-1.266v-6.235h2.676c1.431 0 2.477.844 2.477 2.132 0 .877-.484 1.538-1.244 1.884l1.652 2.23h-1.542L59.271 51.9zm-1.299-1.158h1.366c.704 0 1.277-.38 1.277-.974 0-.596-.583-.975-1.277-.975H57.97v1.949zm11.319 1.894h-2.918l-.517 1.245h-1.366l2.753-6.235h1.19l2.741 6.235h-1.354l-.529-1.245zm-.473-1.115l-1.002-2.381-1.002 2.381h2.004zm9.326 1.202v1.158h-4.547v-6.235h1.266v5.087h3.281v-.01zm11.407-1.331h1.31C90.575 52.982 89.364 54 87.757 54c-1.828 0-3.304-1.342-3.304-3.226 0-1.894 1.476-3.225 3.304-3.225 1.618 0 2.818 1.017 3.105 2.608h-1.31c-.232-.92-.87-1.44-1.806-1.44-1.157 0-2.015.834-2.015 2.068s.858 2.068 2.015 2.068c.947-.022 1.574-.552 1.805-1.462zm6.673.508h-1.3v1.981h-1.266v-6.235h2.676c1.431 0 2.477.844 2.477 2.132 0 .877-.484 1.538-1.244 1.884l1.652 2.23h-1.542L96.223 51.9zm-1.3-1.158h1.366c.705 0 1.277-.38 1.277-.974 0-.596-.584-.975-1.277-.975h-1.365v1.949zm8.072-1.938v1.43h3.028v1.157h-3.028v1.343h3.402v1.158h-4.669v-6.235h4.669v1.158h-3.402v-.01zm12.112 1.938c0 1.797-1.454 3.15-3.403 3.15h-2.433v-6.235h2.433c1.938-.011 3.403 1.32 3.403 3.085zm-1.289 0c0-1.072-.947-1.938-2.114-1.938h-1.167v3.93h1.167c1.167-.011 2.114-.888 2.114-1.992zm5.351-3.096v6.235h-1.266v-6.235h1.266zm8.05 1.158h-2.158v5.088h-1.267v-5.088h-2.158v-1.158h5.583v1.158zm12.09 2.273c0 1.83-1.134 2.923-2.852 2.923-1.696 0-2.841-1.082-2.841-2.923v-3.431h1.267v3.431c0 1.061.627 1.754 1.563 1.754.947 0 1.575-.693 1.575-1.754v-3.431h1.266v3.431h.022zm8.687-3.431v6.235h-.98l-3.435-3.919v3.919h-1.267v-6.235h.947l3.469 4.027v-4.027h1.266zm4.35 0v6.235h-1.267v-6.235h1.267zm9.391 3.118c0 1.796-1.475 3.225-3.303 3.225-1.828 0-3.303-1.429-3.303-3.225 0-1.797 1.475-3.226 3.303-3.226 1.828 0 3.303 1.429 3.303 3.226zm-1.288 0c0-1.137-.859-2.068-2.015-2.068-1.156 0-2.015.93-2.015 2.068 0 1.136.859 2.067 2.015 2.067 1.156 0 2.015-.93 2.015-2.068zm9.756-3.118v6.235h-.98l-3.435-3.919v3.919h-1.266v-6.235h.947l3.468 4.027v-4.027h1.266z" fill="#58595B"/></svg>